<svg width="54" height="54" viewBox="0 0 54 54" fill="none" xmlns="http://www.w3.org/2000/svg">
<path d="M15.75 31.5C14.7678 31.5015 13.7978 31.7172 12.9077 32.1323C12.0175 32.5473 11.2286 33.1516 10.5961 33.903C9.96361 34.6544 9.50269 35.5347 9.24553 36.4826C8.98837 37.4305 8.94116 38.4231 9.1072 39.3911C9.27324 40.3592 9.64853 41.2793 10.2069 42.0873C10.7652 42.8953 11.4932 43.5717 12.3399 44.0694C13.1867 44.567 14.1318 44.8739 15.1094 44.9686C16.087 45.0632 17.0735 44.9434 18 44.6175" stroke="#0956AF" stroke-width="2" stroke-linecap="round" stroke-linejoin="round"/>
<path d="M9.59399 35.1112C8.24751 34.463 7.08363 33.4897 6.2074 32.2791C5.33118 31.0686 4.77018 29.6589 4.57505 28.1773C4.37991 26.6957 4.55678 25.1888 5.08968 23.7926C5.62259 22.3965 6.49476 21.155 7.62749 20.1802M7.69499 19.998C6.95709 18.8938 6.63367 17.5641 6.78198 16.2444C6.9303 14.9246 7.5408 13.6999 8.50538 12.7871C9.46997 11.8742 10.7264 11.3321 12.0524 11.2567C13.3783 11.1813 14.6881 11.5774 15.75 12.375M16.2855 12.5212C15.9266 11.7586 15.7436 10.925 15.7502 10.0822C15.7567 9.2393 15.9526 8.40868 16.3234 7.6517C16.6941 6.89473 17.2303 6.23076 17.8921 5.70886C18.554 5.18696 19.3247 4.82049 20.1473 4.63652C20.9699 4.45256 21.8233 4.45581 22.6444 4.64603C23.4656 4.83625 24.2335 5.20859 24.8914 5.73551C25.5493 6.26243 26.0803 6.93047 26.4453 7.69024C26.8103 8.45002 26.9998 9.2821 27 10.125M27 10.125V45M27 10.125C27.0001 9.2821 27.1897 8.45002 27.5547 7.69024C27.9197 6.93047 28.4507 6.26243 29.1086 5.73551C29.7665 5.20859 30.5344 4.83625 31.3555 4.64603C32.1767 4.45581 33.0301 4.45256 33.8527 4.63652C34.6752 4.82049 35.446 5.18696 36.1078 5.70886C36.7697 6.23076 37.3059 6.89473 37.6766 7.6517C38.0474 8.40868 38.2433 9.2393 38.2498 10.0822C38.2564 10.925 38.0734 11.7586 37.7145 12.5212M27 45C27 46.1935 26.5259 47.3381 25.682 48.182C24.8381 49.0259 23.6935 49.5 22.5 49.5C21.3065 49.5 20.1619 49.0259 19.318 48.182C18.4741 47.3381 18 46.1935 18 45M27 45C27 46.1935 27.4741 47.3381 28.318 48.182C29.1619 49.0259 30.3065 49.5 31.5 49.5M27 15.75C27 17.5402 27.7111 19.2571 28.977 20.523C30.2429 21.7888 31.9598 22.5 33.75 22.5M46.3725 20.1802C47.3548 21.0241 48.143 22.0706 48.6828 23.2477C49.2227 24.4249 49.5014 25.7049 49.5 27C49.5 28.5817 49.0927 30.069 48.375 31.3605M46.305 19.998C47.0429 18.8938 47.3663 17.5641 47.218 16.2444C47.0697 14.9246 46.4592 13.6999 45.4946 12.7871C44.53 11.8742 43.2735 11.3321 41.9476 11.2567C40.6217 11.1813 39.3119 11.5774 38.25 12.375" stroke="#0956AF" stroke-width="2" stroke-linecap="round" stroke-linejoin="round"/>
<path d="M42.0007 36L38.2499 42.75H47.2499L43.4992 49.5" stroke="#F8B324" stroke-width="2" stroke-linecap="round" stroke-linejoin="round"/>
</svg>
